<svg id="Capa_1" data-name="Capa 1" xmlns="http://www.w3.org/2000/svg" viewBox="0 0 297 245.26"><defs><style>.cls-1{fill:#13948d;}</style></defs><title>but309-4</title><path class="cls-1" d="M33.58,109a4.58,4.58,0,0,0,4.59-4.59V92.81A11.52,11.52,0,0,1,49.67,81.3H92a11.52,11.52,0,0,1,11.5,11.51,10.46,10.46,0,0,0,20.92,0A32.47,32.47,0,0,0,92,60.38H49.67l-.67,0A65.93,65.93,0,0,1,66.94,45.67,10.46,10.46,0,0,0,57.54,27C55.9,27.8,17.25,47.59,17.25,88.1v16.33A4.59,4.59,0,0,0,21.84,109Z" transform="translate(0 -25.87)"/><path class="cls-1" d="M291.12,130.4a4.52,4.52,0,0,0-2-.46H7.89a4.7,4.7,0,0,0-2,.46A10.45,10.45,0,0,0,0,139.79v34.6c0,35.52,26.8,65.67,63.67,75.82H10.46a10.46,10.46,0,1,0,0,20.92H286.54a10.46,10.46,0,0,0,0-20.92H233.33C270.2,240.06,297,209.91,297,174.38V139.79A10.45,10.45,0,0,0,291.12,130.4Z" transform="translate(0 -25.87)"/></svg>