<svg id="Capa_1" data-name="Capa 1" xmlns="http://www.w3.org/2000/svg" viewBox="0 0 350.64 512"><defs><style>.cls-1{fill:#13948d;}</style></defs><title>but1453</title><path class="cls-1" d="M259.9,109.84c-1.31-1.61-2.63-3.09-3.9-4.42-1.27,1.33-2.59,2.81-3.9,4.42C247,116.06,241,125.63,241,135.9a15,15,0,1,0,30,0C271,125.63,265,116.06,259.9,109.84Z" transform="translate(-80.68)"/><path class="cls-1" d="M80.68,0V336.93H431.32V0ZM247.22,73.12,256,66.79l8.78,6.33C266.26,74.19,301,99.7,301,135.9a45,45,0,0,1-90,0C211,99.7,245.74,74.19,247.22,73.12Zm62.19,233.77H202.59v-30H309.41Z" transform="translate(-80.68)"/><polygon class="cls-1" points="0 366.94 0 431.03 78.19 471.95 106.91 471.95 106.91 512 136.91 512 136.91 471.95 213.72 471.95 213.72 512 243.72 512 243.72 471.95 272.45 471.95 350.64 431.03 350.64 366.94 0 366.94"/></svg>