<?xml version="1.0" encoding="UTF-8" standalone="no"?>
<svg
   xmlns:dc="http://purl.org/dc/elements/1.1/"
   xmlns:cc="http://creativecommons.org/ns#"
   xmlns:rdf="http://www.w3.org/1999/02/22-rdf-syntax-ns#"
   xmlns:svg="http://www.w3.org/2000/svg"
   xmlns="http://www.w3.org/2000/svg"
   xmlns:sodipodi="http://sodipodi.sourceforge.net/DTD/sodipodi-0.dtd"
   xmlns:inkscape="http://www.inkscape.org/namespaces/inkscape"
   id="Layer_1"
   data-name="Layer 1"
   viewBox="0 0 381.52 456.21"
   version="1.1"
   sodipodi:docname="icon2.svg"
   inkscape:version="1.0.1 (3bc2e813f5, 2020-09-07)">
  <metadata
     id="metadata76">
    <rdf:RDF>
      <cc:Work
         rdf:about="">
        <dc:format>image/svg+xml</dc:format>
        <dc:type
           rdf:resource="http://purl.org/dc/dcmitype/StillImage" />
        <dc:title>but190-2</dc:title>
      </cc:Work>
    </rdf:RDF>
  </metadata>
  <sodipodi:namedview
     pagecolor="#ffffff"
     bordercolor="#666666"
     borderopacity="1"
     objecttolerance="10"
     gridtolerance="10"
     guidetolerance="10"
     inkscape:pageopacity="0"
     inkscape:pageshadow="2"
     inkscape:window-width="1920"
     inkscape:window-height="1017"
     id="namedview74"
     showgrid="false"
     inkscape:zoom="0.65873257"
     inkscape:cx="-425.6"
     inkscape:cy="-58.161132"
     inkscape:window-x="1912"
     inkscape:window-y="-8"
     inkscape:window-maximized="1"
     inkscape:current-layer="Layer_1" />
  <defs
     id="defs63">
    <style
       id="style61">.cls-1{fill:#13948d;}</style>
  </defs>
  <title
     id="title65">but190-2</title>
  <path
     class="cls-1"
     d="M72.09,259.76a6,6,0,0,1,2.09.38,6.41,6.41,0,0,1,2,.18l67.86.15a6,6,0,0,1,2.82-.7,14,14,0,0,0,14-14V34.69a14,14,0,0,0-14-14H72.09a14,14,0,0,0-14,14V245.76a14,14,0,0,0,14,14Z"
     id="path67"
     transform="translate(-58.09 -20.69)" />
  <path
     class="cls-1"
     d="M205.59,229.79c-8.89,0-16.13,8.23-16.13,18.36v12.41l250.15.52V248.15c0-10.13-7.23-18.36-16.13-18.36Z"
     id="path69"
     transform="translate(-58.09 -20.69)" />
  <path
     class="cls-1"
     d="M311,476.9l-.32-61.57q-6.22.53-12.54.53a6,6,0,1,1,0-12,138.3,138.3,0,0,0,16.65-1,6.32,6.32,0,0,1,1.83-.3h0l.29,0a138.45,138.45,0,0,0,78.82-39c24.87-24.55,39.16-56.5,40.65-90.53l-357.74-.74c-13,34.59-9.3,79.77,9.89,119.09,20.82,42.65,56.65,72.92,101,85.48Z"
     id="path71"
     transform="translate(-58.09 -20.69)" />
</svg>
